<svg xmlns="http://www.w3.org/2000/svg" width="48" height="48" viewBox="0 0 48 48">
    <path d="M0 0h48v48H0z" fill="none"/>
    <path d="M15 11.2l5 2.8-2.8-5L20 4l-5 2.8L10 4l2.8 5-2.8 5zm24 19.6L34 28l2.8 5-2.8 5 5-2.8 5 2.8-2.8-5 2.8-5zM44 4l-5 2.8L34 4l2.8 5-2.8 5 5-2.8 5 2.8-2.8-5zM28.74 14.59c-.78-.78-2.05-.78-2.83 0L2.59 37.91c-.78.78-.78 2.05 0 2.83l4.67 4.67c.78.78 2.05.78 2.83 0l23.33-23.33c.78-.78.78-2.05 0-2.83l-4.68-4.66zm-2.05 10.97l-4.24-4.24 4.87-4.87 4.24 4.24-4.87 4.87z"/>
</svg>
