<?xml version="1.0" encoding="utf-8"?>
<!-- Generator: Adobe Illustrator 18.0.0, SVG Export Plug-In . SVG Version: 6.00 Build 0)  -->
<!DOCTYPE svg PUBLIC "-//W3C//DTD SVG 1.1//EN" "http://www.w3.org/Graphics/SVG/1.1/DTD/svg11.dtd">
<svg version="1.1" id="Layer_1" xmlns="http://www.w3.org/2000/svg" xmlns:xlink="http://www.w3.org/1999/xlink" x="0px" y="0px"
	 viewBox="0 0 24 24" enable-background="new 0 0 24 24" xml:space="preserve">
<path fill="none" d="M0,0h24v24H0V0z"/>
<path fill="#FFFFFF" d="M7.5,5.6L10,7L8.6,4.5L10,2L7.5,3.4L5,2l1.4,2.5L5,7L7.5,5.6z M19.5,15.4L17,14l1.4,2.5L17,19l2.5-1.4L22,19
	l-1.4-2.5L22,14L19.5,15.4z M22,2l-2.5,1.4L17,2l1.4,2.5L17,7l2.5-1.4L22,7l-1.4-2.5L22,2z M14.4,7.3c-0.4-0.4-1-0.4-1.4,0L1.3,19
	c-0.4,0.4-0.4,1,0,1.4l2.3,2.3c0.4,0.4,1,0.4,1.4,0L16.7,11c0.4-0.4,0.4-1,0-1.4C16.7,9.6,14.4,7.3,14.4,7.3z M13.3,12.8l-2.1-2.1
	l2.4-2.4l2.1,2.1C15.8,10.3,13.3,12.8,13.3,12.8z"/>
</svg>
